<svg width="24" height="24" viewBox="0 0 24 24" fill="none" xmlns="http://www.w3.org/2000/svg">
<path d="M8.2423 7.33992L1.8623 8.26492L1.7493 8.28792C1.40104 8.38037 1.12945 8.65303 1.03836 9.00165C0.947277 9.35027 1.05078 9.72093 1.3093 9.97192L5.9313 14.4709L4.8413 20.8259L4.8283 20.9359C4.80698 21.2961 4.98138 21.6399 5.28464 21.8354C5.5879 22.031 5.97299 22.048 6.2923 21.8799L11.9983 18.8799L17.6913 21.8799L17.7913 21.9259C18.1274 22.0583 18.5087 21.9991 18.7889 21.7712C19.0691 21.5432 19.2046 21.1819 19.1433 20.8259L18.0523 14.4709L22.6763 9.97092L22.7543 9.88592C22.9811 9.60655 23.0404 9.22684 22.9094 8.89165C22.7784 8.55647 22.4775 8.3175 22.1213 8.26592L15.7413 7.33992L12.8893 1.55992C12.721 1.21829 12.3732 1.00195 11.9923 1.00195C11.6114 1.00195 11.2637 1.21829 11.0953 1.55992L8.2423 7.33992Z" fill="#ED6E37"/>
</svg>
